<?xml version="1.0" encoding="UTF-8"?><svg id="b" xmlns="http://www.w3.org/2000/svg" width="51" height="21" viewBox="0 0 51 21"><path d="M20.51,1.52c3.97-.01,7.45.25,11.41.24,1.69,0,3.53-.11,5.18-.06.77.02,1.72-.06,2.38.06.61.11,1.37-.04,1.89-.06,2.17-.06,5.27-.13,6.65.6,1.7.9,2.45,2.4,2.94,4.36.18.74-.32,1.73-.56,2.21-.76,1.53-1.91,2.9-3.36,3.83-.7.45-1.56.78-2.03,1.43-.5.7-.37,2.12-.14,3.05.23.93-.1,1.8.28,2.51.25.46.73.58.84,1.26-.76.22-2.11.06-3.01.06-.32-.17-1.99-.07-2.52-.06-.04-.09-.05-.1-.07-.24,1.4-1.39.69-4.28.14-6.1-.88-.23-1.63-.23-2.66-.12-.16.17-.41.3-.49.54-.12.39.13,1.01.21,1.32.27.97.08,1.99.49,2.81.25.51.67.66.7,1.43h-.07v.06c-1.57.16-3.52.18-5.25.18-.11-.15-.16-.14-.21-.36.31-.27,1.13-1.21,1.26-1.55.11-.31-.08-.79-.14-1.02l-.07-1.32c-.09-.6-.19-1.2-.28-1.79-.28-.19-.53-.49-.91-.6l-1.82-.06c-1.61,0-4.22-.25-4.48.9-.25.34-.02,1.27.07,1.61.21.82-.13,1.72.21,2.39.3.59,1.11.84,1.26,1.55h-.07v.06c-1.2.09-2.77.11-3.99.12-.7,0-1.34.09-1.47-.42.37-.28,1.08-.72,1.12-1.26.2-.26.02-.84,0-1.2l-.35-2.51c-.09-.35.05-.66-.14-.9-.09-.28-.2-.41-.63-.42-.38-.21-1.09-.03-1.61-.12-1.42-.24-2.5-.27-2.45,1.2.16.22,0,.65.07.96.1.39-.05,1.03.07,1.49.13.51.21,1.08.21,1.67.49.3.71.83,1.12,1.2-.04.1-.01.06-.07.12-.17.16-.61.13-.98.12-.24-.13-.89-.06-1.26-.06h-3.15c-.07-.11-.09-.1-.14-.24.15-.08,1.21-.97,1.26-1.08v-.66c.12-.17.15-1.78.07-2.09-.13-.5-.17-1.24-.07-1.79l-.07-1.79c.1-.98.1-1.93-.14-2.81-.12-.06-.25-.15-.35-.24-.92,0-1.8.02-2.59.12-.61.08-1.31-.09-1.61.24-.3.33-.31.97-.49,1.37-.47,1.09-1.57,3.69-2.8,4.01-.81.21-2-1.17-2.38-1.49-1.42-1.23-2.85-3.04-3.71-4.72-.53-1.05-1-1.28-.63-2.69.46-.23.83-.57,1.4-.72,1.96-.52,4.56-.08,6.72-.48h1.68c.77-.14,2.19.04,3.08.06l7.42.06h7.35c1.18,0,2.66-.13,3.71.06h1.47c1.02.08,2.37,0,3.36.18h1.26c1.24,0,2.74-.1,3.85.12.78.15,1.83.23,2.52.54.65.29.84.99,1.75,1.02.07-.05.02-.02.14-.06v-.12c.19-.24.22-.61.14-.9l-.07-.72c-.34-.95-1.2-1.43-2.17-1.85-.57-.25-1.49-.4-2.17-.54h-2.87c-1.08-.2-2.54.16-3.71-.06-.99-.18-3.49-.18-4.48,0h-1.47c-1.33,0-2.77-.05-3.99-.06-.97-.01-2.08-.03-2.94-.06-1.57-.06-3.42.32-3.43-1.26.17-.11.4-.28.56-.42.16-.01.2-.01.28-.06Z" style="fill:#767676; fill-rule:evenodd;"/></svg>